<svg width="34" height="34" viewBox="0 0 24 24" fill="none" xmlns="http://www.w3.org/2000/svg">
<path d="M11.5657 21.3478L11.4243 20.3578L11.5657 21.3478ZM7.6896 21.2049L8.3448 20.4494L7.6896 21.2049ZM20.2664 19.3637L21.0218 20.0189L20.2664 19.3637ZM20.2664 4.63628L19.5109 5.29148L20.2664 4.63628ZM11.4243 3.64219L15.7071 4.25403L15.99 2.27413L11.7071 1.66229L11.4243 3.64219ZM20 9.20377V14.7962H22V9.20377H20ZM15.7071 19.746L11.4243 20.3578L11.7071 22.3377L15.9899 21.7259L15.7071 19.746ZM8 7.13193V6.61204H6V7.13193H8ZM8 17.388V17.066H6V17.388H8ZM11.4243 20.3578C10.3321 20.5138 9.61808 20.6135 9.08782 20.6144C8.58584 20.6153 8.43048 20.5237 8.3448 20.4494L7.03439 21.9603C7.63831 22.4841 8.35882 22.6157 9.09141 22.6144C9.79571 22.6131 10.6749 22.4852 11.7071 22.3377L11.4243 20.3578ZM6 17.388C6 18.4307 5.99765 19.3191 6.096 20.0165C6.1983 20.7419 6.43048 21.4366 7.03439 21.9603L8.3448 20.4494C8.25912 20.3751 8.1465 20.2343 8.0764 19.7372C8.00235 19.2121 8 18.4912 8 17.388H6ZM20 14.7962C20 16.0628 19.9981 16.919 19.9162 17.5678C19.8377 18.1887 19.6989 18.4918 19.5109 18.7085L21.0218 20.0189C21.5675 19.3898 21.7954 18.6496 21.9004 17.8185C22.0019 17.0153 22 16.0107 22 14.7962H20ZM15.9899 21.7259C17.1922 21.5541 18.187 21.4139 18.9677 21.1999C19.7757 20.9784 20.4762 20.6481 21.0218 20.0189L19.5109 18.7085C19.3229 18.9253 19.0426 19.1056 18.439 19.271C17.8083 19.4439 16.961 19.5669 15.7071 19.746L15.9899 21.7259ZM15.7071 4.25403C16.961 4.43315 17.8083 4.55607 18.439 4.72897C19.0426 4.89442 19.3229 5.07473 19.5109 5.29148L21.0218 3.98108C20.4762 3.35194 19.7757 3.02159 18.9677 2.80012C18.187 2.58611 17.1922 2.44588 15.99 2.27413L15.7071 4.25403ZM22 9.20377C22 7.9893 22.0019 6.98468 21.9004 6.18152C21.7954 5.35041 21.5675 4.61022 21.0218 3.98108L19.5109 5.29148C19.6989 5.50824 19.8377 5.81125 19.9162 6.43216C19.9981 7.081 20 7.93718 20 9.20377H22ZM11.7071 1.66229C10.6749 1.51483 9.79571 1.38686 9.09141 1.38559C8.35883 1.38428 7.63831 1.51588 7.03439 2.03966L8.3448 3.55057C8.43048 3.47626 8.58584 3.38469 9.08782 3.38559C9.61809 3.38654 10.3321 3.48617 11.4243 3.64219L11.7071 1.66229ZM8 6.61204C8 5.50883 8.00235 4.78786 8.0764 4.26279C8.1465 3.76573 8.25912 3.62487 8.3448 3.55057L7.03439 2.03966C6.43048 2.56343 6.1983 3.25809 6.096 3.9835C5.99765 4.6809 6 5.56935 6 6.61204H8Z" fill="#363F5F"/>
<path d="M16 12L16.7809 11.3753L17.2806 12L16.7809 12.6247L16 12ZM4 13C3.44772 13 3 12.5523 3 12C3 11.4477 3.44772 11 4 11V13ZM12.7809 6.3753L16.7809 11.3753L15.2191 12.6247L11.2191 7.6247L12.7809 6.3753ZM16.7809 12.6247L12.7809 17.6247L11.2191 16.3753L15.2191 11.3753L16.7809 12.6247ZM16 13H4V11H16V13Z" fill="#363F5F"/>
</svg>
